<?xml version="1.0" standalone="no"?>
<!DOCTYPE svg PUBLIC "-//W3C//DTD SVG 20010904//EN"
 "http://www.w3.org/TR/2001/REC-SVG-20010904/DTD/svg10.dtd">
<svg version="1.0" xmlns="http://www.w3.org/2000/svg"
 width="838.000000pt" height="838.000000pt" viewBox="0 0 838.000000 838.000000"
 preserveAspectRatio="xMidYMid meet">
<metadata>
Created by potrace 1.14, written by Peter Selinger 2001-2017
</metadata>
<g transform="translate(0.000000,838.000000) scale(0.100000,-0.100000)"
fill="#000000" stroke="none">
<path d="M3948 8365 c-2 -2 -42 -6 -88 -9 -47 -3 -101 -7 -120 -10 -19 -2 -60
-7 -90 -10 -30 -4 -66 -9 -80 -11 -14 -3 -38 -7 -55 -9 -16 -3 -45 -7 -62 -10
-18 -3 -48 -8 -65 -11 -18 -3 -80 -17 -138 -31 -58 -14 -113 -27 -123 -29 -10
-2 -27 -7 -37 -10 -10 -3 -27 -8 -37 -10 -10 -2 -47 -13 -82 -24 -35 -12 -67
-21 -72 -21 -4 0 -20 -5 -36 -12 -15 -6 -30 -12 -33 -12 -3 -1 -18 -6 -35 -13
-16 -6 -66 -25 -110 -42 -303 -115 -583 -261 -860 -450 -60 -41 -115 -80 -122
-86 -17 -14 -31 -25 -78 -60 -204 -151 -484 -423 -668 -649 -18 -21 -47 -55
-64 -75 -18 -20 -33 -41 -33 -48 0 -6 -4 -13 -8 -15 -5 -1 -33 -37 -62 -78
-29 -41 -57 -76 -62 -78 -4 -2 -8 -10 -8 -18 0 -8 -3 -14 -8 -14 -4 0 -13 -14
-20 -30 -8 -17 -20 -36 -27 -43 -12 -13 -65 -99 -94 -155 -8 -15 -17 -29 -20
-32 -3 -3 -13 -18 -21 -35 -8 -16 -17 -32 -20 -35 -23 -23 -237 -492 -233
-510 1 -3 -2 -9 -6 -15 -4 -5 -14 -30 -21 -55 -7 -25 -17 -49 -21 -55 -4 -5
-10 -26 -14 -45 -4 -19 -12 -41 -17 -47 -6 -7 -7 -13 -3 -13 4 0 3 -6 -2 -12
-11 -14 -39 -122 -32 -124 2 0 -2 -8 -10 -17 -7 -10 -10 -17 -7 -17 4 0 2 -8
-3 -17 -5 -10 -12 -34 -15 -54 -3 -20 -10 -47 -15 -60 -5 -13 -9 -27 -9 -32 0
-4 -6 -33 -13 -65 -6 -31 -13 -66 -15 -77 -1 -11 -5 -35 -8 -52 -3 -18 -9 -48
-12 -65 -9 -53 -20 -137 -29 -223 -2 -22 -4 -40 -5 -40 -7 0 -14 -216 -14
-415 0 -320 13 -480 60 -735 3 -16 7 -39 9 -50 2 -19 33 -158 39 -180 2 -5 6
-28 11 -50 4 -22 12 -46 18 -53 5 -6 7 -12 4 -12 -3 0 -1 -15 4 -32 6 -18 12
-40 14 -48 2 -8 14 -46 26 -85 13 -38 23 -72 24 -75 1 -3 4 -12 7 -20 3 -8 13
-37 23 -65 9 -27 19 -57 22 -65 4 -8 7 -17 8 -20 15 -43 81 -198 116 -270 19
-41 42 -90 50 -107 8 -18 17 -33 21 -33 5 0 8 -6 8 -14 0 -29 269 -474 292
-484 5 -2 8 -10 8 -17 0 -7 3 -15 8 -17 4 -2 39 -46 79 -98 163 -217 387 -455
597 -635 32 -27 63 -55 70 -60 56 -51 347 -262 429 -311 27 -16 61 -37 75 -46
15 -9 38 -23 52 -31 14 -7 43 -24 65 -37 72 -42 331 -169 358 -175 15 -4 27
-11 27 -16 0 -5 7 -9 15 -9 8 0 29 -6 47 -14 54 -23 101 -42 133 -54 17 -5 39
-14 50 -18 11 -4 23 -8 28 -9 4 -2 9 -4 12 -5 3 -1 8 -3 13 -5 4 -1 14 -4 22
-8 13 -4 127 -39 255 -76 17 -5 55 -14 85 -21 30 -6 62 -14 70 -17 8 -3 22 -7
30 -8 8 -1 35 -6 60 -11 25 -4 50 -9 55 -10 6 -1 12 -3 15 -4 3 -1 14 -3 25
-5 11 -1 49 -7 85 -14 79 -13 136 -20 215 -27 33 -3 92 -8 130 -12 39 -3 176
-6 305 -6 204 -1 307 4 460 19 67 7 205 25 235 32 11 2 31 5 45 8 47 7 91 15
151 29 33 8 62 15 64 15 3 1 6 1 8 2 1 0 9 2 17 4 8 2 25 6 38 9 12 3 30 8 40
10 61 14 78 20 90 29 6 5 12 7 12 4 0 -3 25 3 57 14 31 10 59 17 61 14 3 -3
10 -1 16 4 6 4 36 16 66 26 74 24 221 81 298 116 35 16 65 29 68 29 4 0 212
103 294 146 30 16 57 32 58 36 2 5 8 8 13 8 6 0 60 32 120 70 61 39 114 70
119 70 5 0 10 3 12 8 2 4 43 36 92 70 48 35 93 67 100 73 6 5 54 43 106 85 52
42 100 82 106 90 6 8 14 14 17 14 3 0 26 19 50 43 25 23 69 65 98 93 59 56
209 213 249 260 14 16 45 54 70 84 25 30 49 60 55 66 5 6 21 27 35 47 14 20
28 37 33 37 4 0 7 6 7 14 0 8 4 16 8 18 14 5 145 198 213 313 23 39 49 78 57
88 8 9 12 17 7 17 -4 0 -3 6 3 13 37 46 212 403 212 433 0 8 5 14 12 14 6 0 8
3 5 6 -3 4 -1 16 5 28 7 11 13 26 14 31 1 6 12 35 24 65 28 70 79 217 86 250
3 14 12 45 20 70 9 25 17 52 19 60 10 45 28 117 32 130 4 8 6 18 5 21 -1 4 3
21 8 39 5 18 12 51 16 74 3 22 7 43 9 46 2 3 6 26 10 50 3 25 8 57 11 73 16
102 24 159 29 217 3 34 11 60 22 67 14 11 14 15 1 35 -8 13 -12 37 -10 53 7
47 6 531 -1 620 -6 78 -8 93 -22 205 -4 30 -9 69 -11 85 -1 17 -3 30 -4 30 -1
0 -4 14 -6 30 -4 28 -17 93 -29 155 -3 14 -8 36 -10 50 -6 36 -10 55 -34 145
-26 96 -31 115 -36 135 -2 8 -4 16 -5 18 -2 1 -3 5 -4 10 -1 4 -13 41 -26 82
-13 41 -24 77 -25 80 -1 3 -4 12 -8 20 -3 8 -17 49 -32 90 -15 41 -34 91 -42
110 -9 19 -21 49 -28 65 -65 153 -158 338 -229 455 -15 25 -29 53 -33 63 -3 9
-9 17 -14 17 -5 0 -9 6 -9 13 0 7 -8 22 -18 33 -10 10 -21 26 -24 35 -7 18
-180 266 -205 295 -10 10 -36 43 -58 72 -21 28 -43 52 -47 52 -4 0 -8 4 -8 10
0 27 -327 362 -485 495 -26 22 -55 47 -65 55 -9 8 -32 26 -50 40 -89 67 -106
81 -117 90 -7 6 -43 31 -80 57 -38 26 -69 51 -71 55 -2 4 -8 8 -12 8 -5 0 -47
24 -92 53 -184 118 -426 244 -628 327 -58 23 -119 49 -137 56 -17 8 -35 14
-39 14 -5 0 -31 9 -59 19 -27 10 -75 26 -105 36 -30 9 -62 19 -70 22 -8 3 -24
8 -35 10 -27 6 -33 8 -85 22 -25 7 -53 15 -62 17 -10 2 -26 6 -35 9 -28 7
-147 33 -179 38 -16 3 -53 10 -82 16 -29 6 -56 10 -60 10 -4 -1 -9 0 -12 1
-13 5 -113 17 -215 26 -33 3 -86 9 -118 13 -55 7 -542 12 -549 6z"/>
</g>
</svg>
